Coordinates
version=1
nRows=24
nColumns=24
inDegrees=yes

Units are S.I. units (second, meters, Newtons, ...)
Angles are in degrees.

endheader
time	pelvis_tilt	pelvis_list	pelvis_rotation	pelvis_tx	pelvis_ty	pelvis_tz	hip_flexion_r	hip_adduction_r	hip_rotation_r	knee_angle_r	ankle_angle_r	subtalar_angle_r	mtp_angle_r	hip_flexion_l	hip_adduction_l	hip_rotation_l	knee_angle_l	ankle_angle_l	subtalar_angle_l	mtp_angle_l	lumbar_extension	lumbar_bending	lumbar_rotation
      1.40416667	     -3.68318653	     -1.15224175	    -10.99585793	      0.99766105	      0.98212376	      0.27434786	    -17.60756430	      2.15443006	     10.80365220	     -5.84189749	      8.17533178	     -9.77774506	     14.65488701	     27.26466262	     -5.40976532	    -10.53199401	      4.02550806	      6.27127109	     -9.30557766	      7.96831330	      1.04431833	      1.47862535	     10.54526908
      1.40833333	     -3.66007820	     -1.09046673	    -11.07793477	      1.00377141	      0.98162920	      0.27408196	    -17.78571887	      1.99566305	     10.76857174	     -6.19540858	      7.99985369	     -9.71203234	     14.68400022	     27.25133677	     -5.35731480	    -10.56017333	      3.68165908	      6.43595231	     -9.47702975	      7.97064040	      1.06203695	      1.36052108	     10.64533803
      1.41250000	     -3.62396396	     -1.01544117	    -11.14748710	      1.00991383	      0.98116864	      0.27379453	    -17.96239585	      1.82443880	     10.70597160	     -6.57395679	      7.82200486	     -9.59242651	     14.75465688	     27.23509199	     -5.28431259	    -10.54234657	      3.26808355	      6.57946770	     -9.63130696	      7.97644516	      1.05425125	      1.21218748	     10.80329752
      1.41666667	     -3.59204447	     -0.92658642	    -11.22543665	      1.01611142	      0.98073264	      0.27350013	    -18.11243318	      1.63728688	     10.61137885	     -6.99154455	      7.64749954	     -9.45064960	     14.91528581	     27.22144000	     -5.19934157	    -10.55396550	      2.80960418	      6.67987900	     -9.76931648	      7.99493070	      1.07024227	      1.06579881	     10.98034760
      1.42083333	     -3.54883673	     -0.82618951	    -11.30845311	      1.02234091	      0.98033857	      0.27319810	    -18.24567730	      1.43598058	     10.49313725	     -7.45992743	      7.46501739	     -9.28597268	     15.43024238	     27.17985301	     -5.09707058	    -10.51604979	      2.34414332	      6.71442471	     -9.98510851	      8.06709711	      1.07931834	      0.91129305	     11.15899282
      1.42500000	     -3.51572802	     -0.70939776	    -11.37191400	      1.02867039	      0.97994968	      0.27289747	    -18.39589790	      1.22964053	     10.44776189	     -7.87302692	      7.19481111	     -9.31982026	     15.48132629	     27.16340722	     -4.97363956	    -10.49799608	      1.81571009	      6.75637452	    -10.13241438	      8.07605514	      1.12882198	      0.72367836	     11.16660839
      1.42916667	     -3.48306329	     -0.58273474	    -11.43447239	      1.03503715	      0.97958914	      0.27257832	    -18.52348543	      1.01482178	     10.39265404	     -8.32501226	      6.91066416	     -9.32461293	     15.52218319	     27.15076914	     -4.83759098	    -10.45047639	      1.25372556	      6.73056849	    -10.26436819	      8.08356017	      1.14969371	      0.53417329	     11.20727526
      1.43333333	     -3.43474192	     -0.44167998	    -11.48386509	      1.04146748	      0.97926901	      0.27223889	    -18.65082317	      0.78570891	     10.25602093	     -8.80358779	      6.59453043	     -9.28725461	     15.60771433	     27.11138235	     -4.67374754	    -10.39352180	      0.69039306	      6.68277448	    -10.41677685	      8.10115775	      1.21671807	      0.31180462	     11.30120845
      1.43750000	     -3.39166841	     -0.27139190	    -11.55804787	      1.04791880	      0.97896549	      0.27186493	    -18.70537566	      0.51367995	     10.03342649	     -9.40185177	      6.40369320	     -8.95960330	     16.19796190	     27.05391035	     -4.47874010	    -10.26625527	      0.16434046	      6.48528426	    -10.72879520	      8.23144838	      1.24189593	      0.07817022	     11.60618343
      1.44166667	     -3.30713680	     -0.10153121	    -11.58598535	      1.05442839	      0.97874321	      0.27147995	    -18.84789711	      0.25547751	      9.87710050	     -9.90279112	      5.96068049	     -9.08052167	     21.38359691	     26.95700320	     -4.25675970	    -10.10529810	     -0.37063670	      6.24972084	    -11.01639903	      9.43808884	      1.24406846	     -0.18590038	     11.67946958
      1.44583333	     -3.29996127	      0.08295174	    -11.63505104	      1.06097320	      0.97845319	      0.27110890	    -18.87044482	     -0.00417105	      9.74991534	    -10.47836134	      5.56470232	     -9.05208014	     21.40615377	     26.97666915	     -4.05223791	    -10.07416440	     -0.99491406	      6.05142871	    -11.09029155	      9.44764932	      1.35990733	     -0.44616036	     11.69011532
      1.45000000	     -3.26092021	      0.26543756	    -11.67559017	      1.06752055	      0.97824013	      0.27069898	    -18.89761215	     -0.26436147	      9.58103468	    -11.10784959	      5.17212578	     -9.03432873	     21.43411942	     26.96104772	     -3.83553476	    -10.02595365	     -1.62311122	      5.79351249	    -11.19842565	      9.45739951	      1.43398985	     -0.69133332	     11.74139437
      1.45416667	     -3.26687273	      0.49001900	    -11.71113237	      1.07411672	      0.97797766	      0.27023985	    -18.82169829	     -0.56502508	      9.31060296	    -11.83330810	      4.86244875	     -8.73451487	     21.61323209	     26.96952634	     -3.56926502	     -9.87802438	     -2.18525823	      5.40294240	    -11.48058183	      9.51851809	      1.55974850	     -0.98546030	     11.89480947
      1.45833333	     -3.22058384	      0.71602534	    -11.70944562	      1.08078755	      0.97781978	      0.26977344	    -18.83276815	     -0.85777403	      9.09414329	    -12.49488355	      4.37510523	     -8.71680343	     21.70338958	     26.94294541	     -3.28293697	     -9.77628765	     -2.79531721	      5.06495915	    -11.58274495	      9.54995757	      1.63938793	     -1.30683531	     11.93584601
      1.46250000	     -3.19418425	      0.95305382	    -11.71048920	      1.08745031	      0.97767642	      0.26927693	    -18.77704812	     -1.16037241	      8.84274370	    -13.23455281	      3.90330400	     -8.61336836	     21.82956491	     26.93598001	     -2.98750599	     -9.67575095	     -3.39829615	      4.65430148	    -11.71682934	      9.58991877	      1.74181691	     -1.62897313	     11.99544034
      1.46666667	     -3.18974210	      1.19281961	    -11.72640896	      1.09405735	      0.97752038	      0.26872609	    -18.61564149	     -1.47443131	      8.50710137	    -14.12895207	      3.55597331	     -8.28592561	     22.21861725	     26.95035125	     -2.68921363	     -9.52117667	     -3.98819307	      4.17201697	    -12.04004966	      9.71293058	      1.87155575	     -1.91415156	     12.07796675
      1.47083333	     -3.14369819	      1.45244051	    -11.69734243	      1.10080150	      0.97747922	      0.26819734	    -18.55667911	     -1.79190008	      8.25692943	    -14.89904822	      2.95898351	     -8.27416649	     22.36770106	     26.93382986	     -2.35711156	     -9.44665110	     -4.61900973	      3.77415530	    -12.08592720	      9.75957994	      1.96532023	     -2.27835875	     12.10822099
      1.47500000	     -3.15293160	      1.71211436	    -11.66383451	      1.10747925	      0.97737325	      0.26758096	    -18.35380024	     -2.10753638	      7.90807943	    -15.82651609	      2.44223198	     -8.18685964	     27.91107098	     26.97259968	     -2.02027225	     -9.25571065	     -5.22137125	      3.25132675	    -12.41508410	     11.45490694	      2.11644892	     -2.59808381	     12.12738942
      1.47916667	     -3.09524993	      1.97576829	    -11.62957788	      1.11416425	      0.97739699	      0.26696483	    -18.20809571	     -2.44262223	      7.56712586	    -16.77352979	      1.88589487	     -7.92694455	     27.95923478	     26.97192352	     -1.68408772	     -9.25094304	     -5.90426576	      2.89021703	    -12.37712869	     11.47420035	      2.18842652	     -2.94089042	     12.16603415
      1.48333333	     -3.09078810	      2.25075658	    -11.59267342	      1.12084996	      0.97739163	      0.26634965	    -17.96906701	     -2.77524079	      7.24806205	    -17.78434363	      1.32963058	     -7.72249373	     28.04671827	     27.01868456	     -1.34372230	     -9.21105469	     -6.56406032	      2.49648689	    -12.41516465	     11.50548367	      2.32475534	     -3.28989081	     12.19540428
      1.48750000	     -3.07219834	      2.52275262	    -11.52597958	      1.12753245	      0.97742820	      0.26567717	    -17.72389011	     -3.10193399	      6.90432794	    -18.83458891	      0.74717617	     -7.51236206	     28.16854697	     27.06469347	     -0.99243374	     -9.15689478	     -7.25721322	      2.14258537	    -12.44298113	     11.54165343	      2.44660327	     -3.63683784	     12.18690723
      1.49166667	     -3.01221784	      2.79151378	    -11.44844946	      1.13419480	      0.97756540	      0.26501194	    -17.51715652	     -3.42383687	      6.60694871	    -19.88237051	      0.06292915	     -7.42345697	     28.22656045	     27.06696533	     -0.63474178	     -9.11321009	     -7.95458864	      1.82922076	    -12.43345862	     11.55602466	      2.51163603	     -4.00829071	     12.19828049
      1.49583333	     -3.01066954	      3.06029696	    -11.37330624	      1.14079667	      0.97762792	      0.26427680	    -17.16322187	     -3.75154049	      6.24143132	    -21.09285317	     -0.46390245	     -7.09683531	     28.40032193	     27.14475106	     -0.29030971	     -9.09200007	     -8.68151020	      1.52703485	    -12.44372446	     11.59679786	      2.64281333	     -4.33428370	     12.17123562
      1.50000000	     -2.97953799	      3.33417949	    -11.30039644	      1.14741183	      0.97778268	      0.26356632	    -16.83001215	     -4.08698886	      5.92592093	    -22.30601474	     -1.08580830	     -6.88303049	     28.57695549	     27.17511332	      0.06252129	     -9.08906796	     -9.38339614	      1.26555707	    -12.40721085	     11.63553370	      2.74007898	     -4.68271541	     12.16619041
